# xmcd
#
# Track frame offsets: 
#        150
#        42862
#        92045
#        132825
#        212572
#        264575
#
# Disc length: 3990 seconds
#
# Revision: 2
# Processed by: cddbd v1.5.2PL0 Copyright (c) Steve Scherf et al.
# Submitted via: ExactAudioCopy v1.0b2
#
DISCID=4d0f9406
DTITLE=Itzhak Perlman - James Levine - Vienna Philharmonic Orchestra - T
DTITLE=he Wonderful Sounds of Wiener Philharmoniker, Vol. 43, Mozart 6
DYEAR=1982
DGENRE=Classical
TTITLE0=Mozart: Violin Concerto No. 5 in A major, K.219 - I. Allegro a
TTITLE0=perto [Cadenza: Itzhak Perlman]
TTITLE1=Mozart: Violin Concerto No. 5 in A major, K.219 - II. Adagio [
TTITLE1=Cadenza: Itzhak Perlman]
TTITLE2=Mozart: Violin Concerto No. 5 in A major, K.219 - III. Rondeau
TTITLE2=Tempo di Menuetto [Cadenza: Itzhak Perlman]
TTITLE3=Mozart: Symphony No. 38 in D major, K.504, "Prague" - I. Adagi
TTITLE3=o - Allegro
TTITLE4=Mozart: Symphony No. 38 in D major, K.504, "Prague" - II. Anda
TTITLE4=nte
TTITLE5=Mozart: Symphony No. 38 in D major, K.504, "Prague" - III. Fin
TTITLE5=ale. Presto
EXTD=
EXTT0=
EXTT1=
EXTT2=
EXTT3=
EXTT4=
EXTT5=
PLAYORDER=
